<svg width="90" height="90" viewBox="0 0 90 90" fill="none" xmlns="http://www.w3.org/2000/svg">
<circle cx="44.5" cy="45.5" r="37.5" fill="white"/>
<path d="M74.3627 43.5308C73.7267 43.0285 73.6192 42.1053 74.1215 41.4693C74.6238 40.8336 75.5462 40.725 76.182 41.2271L80.7807 44.8599C80.3555 25.1331 64.2325 9.27205 44.4037 9.27203C29.5109 9.27203 16.7041 18.22 11.0727 31.0386C10.7465 31.7803 9.88088 32.1175 9.13907 31.7916C8.39734 31.4655 8.0603 30.5998 8.38614 29.858C14.469 16.0119 28.305 6.33746 44.4037 6.33746C65.5509 6.33748 82.7968 23.0313 83.6869 43.9595L86.935 40.399C87.4813 39.8006 88.4097 39.758 89.0082 40.3043C89.6066 40.8505 89.649 41.7789 89.1029 42.3775L82.3168 49.813L74.3627 43.5308ZM36.3051 57.4341H31.6576V53.8873H36.3051V50.8111H31.6576V47.2867H36.3051V30.9205H48.3607C51.863 30.9205 54.6394 31.8113 56.6898 33.5923C58.7402 35.3733 59.766 37.7828 59.766 40.8209C59.766 44.0088 58.7778 46.4714 56.8022 48.2076C54.8415 49.9287 52.05 50.7961 48.4281 50.8111H40.5932V53.8873H48.1137V57.4341H40.5932V63.608H36.3051V57.4341ZM48.3607 47.2867C50.6806 47.2867 52.4473 46.7406 53.6596 45.648C54.8717 44.5554 55.4779 42.961 55.4779 40.8658C55.4779 38.9651 54.8493 37.4306 53.5922 36.2632C52.335 35.0809 50.6358 34.4823 48.4955 34.4673H40.5932V47.2867H48.3607ZM44.4018 84.1304C23.3377 84.1302 6.14257 67.5673 5.12833 46.7545L2.59219 49.7798C2.07158 50.4006 1.14579 50.4818 0.524811 49.9615C-0.0961821 49.4408 -0.177441 48.5151 0.34317 47.8941L6.5209 40.5259L13.7523 47.2681C14.3451 47.8208 14.3782 48.7496 13.8256 49.3423C13.273 49.9351 12.3441 49.9672 11.7514 49.4146L8.03555 45.9507C8.63892 65.5181 24.6882 81.1957 44.4018 81.1959C59.2946 81.1959 72.1014 72.2479 77.7328 59.4293C78.0589 58.6875 78.9245 58.3504 79.6664 58.6763C80.4084 59.0023 80.7453 59.868 80.4193 60.6099C74.3365 74.456 60.5005 84.1304 44.4018 84.1304Z" fill="#FB6900"/>
</svg>
