<svg width="71" height="88" viewBox="0 0 71 88" fill="none" xmlns="http://www.w3.org/2000/svg">
<path fill-rule="evenodd" clip-rule="evenodd" d="M23.1428 85.0108L17.3301 75.0754C16.9551 74.5183 16.3926 74.1469 15.7363 74.1469H2.79822L20.1759 47.093L25.5199 48.0216L29.6451 55.5428C30.4889 57.307 32.5515 58.0498 34.4265 57.307L38.3642 55.5428L40.2393 58.7927L23.1428 85.0108Z" fill="white"/>
<path fill-rule="evenodd" clip-rule="evenodd" d="M19.4676 45.4806L26.4669 46.6967L30.9513 54.8729L30.9689 54.9097C31.4505 55.9167 32.6531 56.4167 33.8591 55.9533L38.9732 53.662L41.9605 58.8396L23.0752 87.8011L16.0917 75.8646C16.0149 75.7582 15.9391 75.6939 15.8811 75.6589C15.8232 75.6241 15.7783 75.6143 15.7363 75.6143H0.111626L19.4676 45.4806ZM20.8842 48.7055L5.48482 72.6795H15.7363C16.9931 72.6795 17.969 73.3968 18.5474 74.256L18.5733 74.2945L23.2105 82.2206L38.5181 58.7457L37.7552 57.4236L34.997 58.6593L34.967 58.6712C32.4452 59.6703 29.5543 58.7001 28.3405 56.2156L24.5729 49.3464L20.8842 48.7055Z" fill="#FB6900"/>
<path fill-rule="evenodd" clip-rule="evenodd" d="M52.7466 74.4919L46.6971 85.122L25.5398 54.2135C25.4422 53.9236 25.3446 53.7303 25.1495 53.5371L23.0029 49.7682L23.6859 49.4783L31.6869 53.3438C32.2724 53.6337 32.8578 53.7303 33.4432 53.7303C34.8093 53.7303 36.1753 53.0539 36.8583 51.7976L41.2491 43.97L47.1035 42.907L67.8705 73.5255H54.4054C53.7224 73.5255 53.0393 73.9121 52.7466 74.4919Z" fill="white"/>
<path fill-rule="evenodd" clip-rule="evenodd" d="M47.7816 41.2925L70.6388 74.9929H54.4054C54.3347 74.9929 54.2448 75.015 54.1637 75.0618C54.0815 75.1093 54.0565 75.1533 54.0565 75.1532L54.0401 75.1859L46.8117 87.8873L24.214 54.8745L24.1491 54.6816C24.1287 54.621 24.1151 54.5874 24.1078 54.5706L23.974 54.4381L20.9118 49.0617L23.7251 47.8676L32.3317 52.0256L32.3381 52.0288C32.6762 52.1962 33.0276 52.2629 33.4432 52.2629C34.358 52.2629 35.1818 51.8092 35.5691 51.0967L35.5738 51.0882L40.3073 42.6496L47.7816 41.2925ZM42.191 45.2904L38.1424 52.5078C37.1623 54.3017 35.2574 55.1977 33.4432 55.1977C32.6901 55.1977 31.873 55.0719 31.0426 54.6622L26.1262 52.2869L26.3418 52.6655C26.5913 52.9552 26.7437 53.2497 26.8558 53.5383L46.5824 82.3566L51.4562 73.7925C52.0347 72.6864 53.247 72.0581 54.4054 72.0581H65.1022L46.4255 44.5215L42.191 45.2904Z" fill="#FB6900"/>
<path fill-rule="evenodd" clip-rule="evenodd" d="M34.8065 57.707L26.0718 62.3717L21.2698 53.7701L11.3755 53.0169L12.0309 43.2094L4.11848 37.2774L10.0231 29.3777L6.60464 20.1504L15.8839 16.6667L18.0447 7.07353L27.7524 9.11183L34.8065 2.19867L41.8606 9.11183L51.5683 7.07353L53.7291 16.6667L63.0083 20.1504L59.5898 29.3777L65.4945 37.2774L57.582 43.2094L58.2374 53.0169L48.3431 53.7701L43.5412 62.3717L34.8065 57.707Z" fill="white"/>
<path fill-rule="evenodd" clip-rule="evenodd" d="M34.8065 0.144104L42.3271 7.5145L52.682 5.34031L54.9865 15.5714L64.8919 19.2901L61.2432 29.1388L67.5471 37.5726L59.0992 43.9059L59.7985 54.3697L49.2403 55.1735L44.1204 64.3446L34.8065 59.3706L25.4926 64.3446L20.3727 55.1735L9.81447 54.3697L10.5137 43.9059L2.06587 37.5726L8.36974 29.1388L4.72108 19.2901L14.6264 15.5714L16.9309 5.34031L27.2858 7.5145L34.8065 0.144104ZM34.8065 4.25327L28.2189 10.7092L19.1584 8.80679L17.1413 17.762L8.48819 21.0107L11.6765 29.6167L6.17108 36.9823L13.5481 42.5129L12.9366 51.6641L22.1669 52.3668L26.651 60.3989L34.8065 56.0435L42.962 60.3989L47.446 52.3668L56.6763 51.6641L56.0648 42.5129L63.4419 36.9823L57.9364 29.6167L61.1248 21.0107L52.4716 17.762L50.4545 8.80679L41.394 10.7092L34.8065 4.25327Z" fill="#FB6900"/>
</svg>
